
<?xml version="1.0" encoding="UTF-8" standalone="no"?>
<svg width="120px" height="32px" viewBox="0 0 120 32" version="1.1" xmlns="http://www.w3.org/2000/svg" xmlns:xlink="http://www.w3.org/1999/xlink">
    <defs></defs>
    <g id="Symbols" stroke="none" stroke-width="1" fill="none" fill-rule="evenodd">
        <g id="block/menu" transform="translate(-100.000000, -6.000000)" fill="#FFFFFF">
            <g id="logoSSC" transform="translate(100.000000, 6.000000)">
                <path d="M23.7539074,16.3308488 L23.5998009,17.9755349 L22.5365854,17.9755349 C21.3248382,17.9755349 20.3890493,17.7036566 19.7268293,17.1500351 C19.0654057,16.6015433 18.773121,15.8529902 18.8599303,14.8988513 L19.5548034,7.12486847 L18.036436,7.12486847 L18.1833748,5.478604 L23.004878,5.478604 L22.1885515,14.8988513 C22.1156794,15.7535514 23.0223992,16.2290424 23.7539074,16.3308488 L23.7539074,16.3308488 Z M29.4092583,14.8988513 L30.9797909,0 L21.8727725,0 L20.5857641,0 L13.4415132,0 C11.9494276,0 10.6906919,0.401306559 9.66610254,1.20628727 C8.44041812,2.15490179 7.82638128,3.38604875 7.82638128,4.89657138 C7.82638128,5.75008769 8.06849179,6.505349 8.54474863,7.16038232 L12.0051767,11.699053 C12.5503235,12.4373465 12.8266799,13.1780077 12.8266799,13.9178797 C12.8266799,14.6198702 12.5578895,15.2003244 12.0274764,15.6509558 C11.498656,16.1035602 10.7468392,16.3308488 9.7728223,16.3308488 L0,16.3308488 L1.05246391,17.9771133 L9.92015928,17.9771133 C11.6595321,17.9771133 13.0815331,17.5398983 14.1893479,16.6753332 C15.4970632,15.6549018 16.1525137,14.2994563 16.1525137,12.6113644 C16.1525137,11.3490442 15.7849676,10.2429849 15.0379293,9.292792 L11.9494276,5.50938267 C11.4540567,4.86973869 11.2063713,4.2300947 11.2063713,3.5951859 C11.2063713,2.92160645 11.5181682,2.37903367 12.1525137,1.96904595 C12.4826282,1.75241143 13.0576406,1.64744826 13.8883026,1.64744826 L20.4396217,1.64744826 L21.7258337,1.64744826 L27.5285217,1.64744826 L26.0802389,14.8988513 C26.0009955,15.8529902 26.292882,16.6015433 26.953111,17.1500351 C27.6117471,17.7036566 28.5475361,17.9771133 29.7604778,17.9771133 L30.8738676,17.9771133 L31.0004978,16.3308488 C30.241115,16.2606103 29.3308113,15.7866976 29.4092583,14.8988513 L29.4092583,14.8988513 Z M39.2434047,13.8906524 C39.1761075,14.5622589 38.8670981,15.1423185 38.3247387,15.6257015 C37.7768044,16.1090845 37.1571926,16.3525517 36.4619214,16.3525517 L37.4347437,5.478604 L32.6351419,5.478604 L32.4874067,7.12486847 L33.9269288,7.12486847 L32.9879542,18 L36.3133897,18 C37.9544052,17.9802701 39.3959184,17.3907401 40.6446989,16.2191775 C41.8926829,15.0484041 42.5927327,13.646396 42.7408661,12.0202561 L43.3138875,5.478604 L39.9900448,5.478604 L39.2434047,13.8906524 Z M53.5446491,8.9751403 C53.640219,7.84224833 53.3109009,6.96308313 52.5487307,6.33961768 C51.8709806,5.76705542 50.9523146,5.478604 49.7983076,5.478604 C48.6681931,5.478604 47.6579393,5.78323395 46.767546,6.38894248 C45.7728223,7.04634339 45.2276755,7.90696247 45.1269288,8.9751403 C45.0484818,9.9533497 45.4562469,10.8743423 46.3653559,11.7298316 C45.3061224,12.4140652 44.738676,13.3382147 44.6574415,14.4817608 C44.5885515,15.4868029 44.9847685,16.3217731 45.8480836,16.9929849 C46.658437,17.6464398 47.6101543,17.9771133 48.7044301,17.9771133 C49.8472872,17.9771133 50.8149328,17.6866889 51.6085615,17.1168888 C52.4670981,16.4772448 52.9513191,15.6008418 53.0433051,14.4817608 L51.3863614,14.4817608 C51.3369836,15.0231498 51.1251369,15.463127 50.7492285,15.7989302 C50.3769039,16.1398632 49.9715281,16.3217731 49.5211548,16.3525517 C48.9915381,16.3864872 48.5921354,16.2290424 48.3189647,15.884558 C48.0457939,15.5416521 47.9092086,15.116275 47.9092086,14.6052701 C47.9092086,14.0650649 48.0457939,13.5887846 48.3189647,13.166959 C48.5921354,12.7478955 48.9513191,12.5407313 49.3985067,12.5407313 L52.5758089,12.5407313 L52.721553,10.9165644 L49.5211548,10.9165644 C48.7454455,10.9165644 48.3548034,10.3933269 48.3548034,9.33974921 C48.3548034,8.73325149 48.5312096,8.20054367 48.889995,7.73767976 C49.2483823,7.28349702 49.730214,7.07475447 50.3422598,7.12486847 C50.7910403,7.17735005 51.169338,7.37149246 51.4859134,7.7037443 C51.7993031,8.03875833 51.93111,8.4621624 51.8853161,8.9751403 L53.5446491,8.9751403 Z M86.4418118,0 L83.6670981,0 L83.1115978,0 L75.2394226,0 C73.7441513,0 72.486212,0.401306559 71.4612245,1.20628727 C70.2323544,2.15490179 69.6219014,3.38604875 69.6219014,4.89657138 C69.6219014,5.75008769 69.8628173,6.505349 70.3410652,7.16038232 L73.8010951,11.699053 C74.3466401,12.4373465 74.6214037,13.1780077 74.6214037,13.9178797 C74.6214037,14.6198702 74.3526132,15.2003244 73.8241911,15.6509558 C73.2961672,16.1035602 72.5423594,16.3308488 71.5691389,16.3308488 L59.1012444,16.3308488 L59.5512195,11.1363557 C59.6189149,10.3179586 59.9163763,9.54020519 60.4491787,8.79796563 C60.9748133,8.06046124 61.6207068,7.55182392 62.3832753,7.27442126 L62.2000996,9.49719397 L64.0143355,9.49719397 L64.3910403,5.478604 L63.2788452,5.478604 C61.9364858,5.478604 60.8354405,5.83098036 59.9757093,6.53612767 L60.0489796,5.478604 L55.2290692,5.478604 L55.0809358,7.12486847 L56.5961175,7.12486847 L55.6316575,17.9771133 L58.3450473,17.9771133 L58.9570931,17.9771133 L71.7124938,17.9771133 C73.4558487,17.9771133 74.8758586,17.5398983 75.9860627,16.6753332 C77.2953708,15.6549018 77.9460428,14.2994563 77.9460428,12.6113644 C77.9460428,11.3490442 77.5780986,10.2429849 76.8350423,9.292792 L73.7441513,5.50938267 C73.2495769,4.86973869 73.0026879,4.2300947 73.0026879,3.5951859 C73.0026879,2.92160645 73.3109009,2.37903367 73.9480338,1.96904595 C74.2757591,1.75241143 74.853559,1.64744826 75.68223,1.64744826 L82.9746142,1.64744826 L82.6520657,5.478604 L79.7857641,5.478604 L79.6388253,7.12486847 L82.5011448,7.12486847 L81.8078646,14.9264732 C81.7222499,15.9109961 81.9810851,16.6753332 82.5756098,17.2155384 C83.1207566,17.7210189 83.8757591,17.9771133 84.8370333,17.9771133 L86.5776008,17.9771133 L86.7269288,16.3032269 C85.9631658,16.2223343 85.0492782,15.7606542 85.1340966,14.9264732 L85.8297661,7.12486847 L88.2198109,7.12486847 L88.3691389,5.478604 L85.9512195,5.478604 L86.4418118,0 Z M98.0001991,8.9751403 C98.0997511,7.84224833 97.7704331,6.96308313 97.0082628,6.33961768 C96.327327,5.76705542 95.4098556,5.478604 94.2498756,5.478604 C93.1277252,5.478604 92.1182678,5.78323395 91.2219014,6.38894248 C90.2283723,7.04634339 89.6836237,7.90696247 89.5816824,8.9751403 C89.5012444,9.9533497 89.9117969,10.8743423 90.8193131,11.7298316 C89.7628671,12.4140652 89.1950224,13.3382147 89.1141862,14.4817608 C89.0444998,15.4868029 89.441115,16.3225623 90.2988552,16.9929849 C91.1096068,17.6464398 92.0649079,17.9771133 93.1567944,17.9771133 C94.3044301,17.9771133 95.2736685,17.6866889 96.0621205,17.1168888 C96.9226481,16.4772448 97.4040816,15.6008418 97.4992534,14.4817608 L95.8359383,14.4817608 C95.7925336,15.0231498 95.5794923,15.463127 95.2087606,15.7989302 C94.8312593,16.1398632 94.4266799,16.3225623 93.9782977,16.3525517 C93.4502738,16.3864872 93.0472872,16.2290424 92.7784968,15.884558 C92.5001493,15.5416521 92.3651568,15.116275 92.3651568,14.6052701 C92.3651568,14.0650649 92.5001493,13.5887846 92.7784968,13.166959 C93.0472872,12.7478955 93.4068691,12.5407313 93.8536585,12.5407313 L97.0317571,12.5407313 L97.1794923,10.9165644 L93.9782977,10.9165644 C93.1958188,10.9165644 92.8099552,10.3933269 92.8099552,9.33974921 C92.8099552,8.73325149 92.9887506,8.20054367 93.3447486,7.73767976 C93.7003484,7.28349702 94.1853659,7.07475447 94.7974116,7.12486847 C95.2438029,7.17735005 95.6221005,7.37149246 95.9430562,7.7037443 C96.2540567,8.03875833 96.3858636,8.4621624 96.3380786,8.9751403 L98.0001991,8.9751403 Z M116.457143,16.3237461 C116.11787,16.3123027 115.910403,16.2744213 115.82439,16.2069449 C115.644798,16.0763329 115.581882,15.7590758 115.628074,15.2717468 L116.175212,9.04695721 C116.272773,7.83159418 115.894475,6.9212557 115.031956,6.31633637 C114.272573,5.75758506 113.193031,5.478604 111.806073,5.478604 L99.6603285,5.478604 L99.5102041,7.12486847 L100.954903,7.12486847 L100.010752,17.9755349 L103.309905,17.9755349 L104.282728,7.12486847 L105.624689,7.12486847 C106.039622,7.12486847 106.350622,7.287443 106.565256,7.6050947 C106.780687,7.92708699 106.874266,8.27630656 106.838427,8.65156962 L106.014535,17.9755349 L109.347138,17.9755349 L110.315978,7.12486847 L111.657143,7.12486847 C112.071279,7.12486847 112.382678,7.287443 112.598109,7.6050947 C112.814335,7.92708699 112.903534,8.27630656 112.871677,8.65156962 L112.276755,15.4690459 C112.20667,16.2878376 112.457143,16.92906 113.020607,17.3852157 C113.531906,17.7798141 114.196516,17.9755349 115.006073,17.9755349 L118.9555,17.9755349 L120,16.3308488 C119.915182,16.3308488 116.529219,16.3269028 116.457143,16.3237461 L116.457143,16.3237461 Z" id="Fill-1"></path>
                <path d="M21,26.0640772 L26.0989146,26.0640772 L26.0989146,27.4733012 L22.494918,27.4733012 L22.494918,28.5687841 L25.9302673,28.5687841 L25.9302673,29.9324421 L22.494918,29.9324421 L22.494918,31.9359228 L21,31.9359228 L21,26.0640772 Z M27.0788067,31.9359228 L28.5776743,31.9359228 L28.5776743,26.0640772 L27.0788067,26.0640772 L27.0788067,31.9359228 Z M29.6673649,31.9359228 L31.1646527,31.9359228 L31.1646527,27.667906 L31.1796611,27.667906 L33.9925558,31.9359228 L36.3113573,31.9359228 L36.3113573,26.0640772 L34.8144645,26.0640772 L34.8144645,30.3292461 L34.8045905,30.3292461 L31.9893261,26.0640772 L29.6673649,26.0640772 L29.6673649,31.9359228 Z M37.3212663,31.9359228 L42.7507612,31.9359228 L42.7507612,30.523851 L38.8161843,30.523851 L38.8161843,29.5821533 L42.4592818,29.5821533 L42.4592818,28.3670596 L38.8161843,28.3670596 L38.8161843,27.4258366 L42.6634753,27.4258366 L42.6634753,26.0640772 L37.3212663,26.0640772 L37.3212663,31.9359228 Z M46.8717585,29.8769085 C46.8717585,31.5918044 47.6731293,32 49.0223077,32 L51.4410337,32 C52.942666,32 53.2400698,31.2230045 53.2400698,30.2309944 L53.2400698,29.6785064 L51.742387,29.6785064 C51.742387,30.4080373 51.5401683,30.4906257 50.8651842,30.4906257 L49.266787,30.4906257 C48.5566516,30.4906257 48.4113068,30.1678665 48.4113068,29.314453 L48.4113068,28.6841231 C48.4113068,27.9541176 48.5566516,27.508425 49.3501232,27.508425 L50.9793272,27.508425 C51.4268152,27.508425 51.6831433,27.6280358 51.6831433,28.05142 L51.6831433,28.2118503 L53.1784563,28.2118503 C53.1918849,26.5496401 52.9189685,26 50.7846126,26 L49.0223077,26 C47.6731293,26 46.8717585,26.4024998 46.8717585,28.1221422 L46.8717585,29.8769085 Z M53.6610956,31.9359228 L55.3325601,31.9359228 L55.7725439,30.8959734 L58.8054304,30.8959734 L59.2746412,31.9359228 L60.9382065,31.9359228 L58.2536734,26.0640772 L56.3033681,26.0640772 L53.6610956,31.9359228 Z M57.275756,27.4258366 L58.2485389,29.6315165 L56.3310152,29.6315165 L57.275756,27.4258366 Z M61.4686358,31.9359228 L62.9647387,31.9359228 L62.9647387,27.667906 L62.9797471,27.667906 L65.7934317,31.9359228 L68.114208,31.9359228 L68.114208,26.0640772 L66.6125757,26.0640772 L66.6125757,30.3292461 L66.599542,30.3292461 L63.7870424,26.0640772 L61.4686358,26.0640772 L61.4686358,31.9359228 Z M69.1181926,31.9359228 L70.6162703,31.9359228 L70.6162703,27.667906 L70.6296989,27.667906 L73.4441734,31.9359228 L75.7641598,31.9359228 L75.7641598,26.0640772 L74.2648972,26.0640772 L74.2648972,30.3292461 L74.2526535,30.3292461 L71.4397588,26.0640772 L69.1181926,26.0640772 L69.1181926,31.9359228 Z M76.2902445,31.9359228 L77.9640788,31.9359228 L78.4028777,30.8959734 L81.4405037,30.8959734 L81.90458,31.9359228 L83.5701201,31.9359228 L80.885587,26.0640772 L78.9364667,26.0640772 L76.2902445,31.9359228 Z M79.9072747,27.4258366 L80.8780828,29.6315165 L78.9629289,29.6315165 L79.9072747,27.4258366 Z M84.0958099,31.9359228 L88.866909,31.9359228 C89.7259438,31.9359228 90.3586673,31.6653746 90.3586673,30.37766 C90.3586673,29.4933945 90.1153729,29.0723835 89.4589518,28.9741318 L89.4589518,28.9499248 C89.8803726,28.8032592 90.1868604,28.610553 90.1868604,27.6038288 C90.1868604,26.4523376 89.6058764,26.0640772 88.409547,26.0640772 L84.0958099,26.0640772 L84.0958099,31.9359228 Z M85.5966524,27.4733012 L88.2487989,27.4733012 C88.524085,27.4733012 88.686018,27.5967091 88.686018,27.9365557 C88.686018,28.2688078 88.524085,28.3926905 88.2487989,28.3926905 L85.5966524,28.3926905 L85.5966524,27.4733012 Z M85.5966524,29.6063603 L88.2803956,29.6063603 C88.6066313,29.6063603 88.8226736,29.6951191 88.8226736,30.094771 C88.8226736,30.4341429 88.6066313,30.523851 88.2803956,30.523851 L85.5966524,30.523851 L85.5966524,29.6063603 Z M91.3397443,31.9359228 L92.838217,31.9359228 L92.838217,26.0640772 L91.3397443,26.0640772 L91.3397443,31.9359228 Z M93.8386469,30.4175303 C93.8386469,31.6905308 94.3844796,32 95.7466916,32 L97.5638958,32 C99.5505372,32 100,31.7422672 100,30.1588482 C100,28.4472747 99.4604866,28.2759275 97.1290465,28.2844712 C95.5251199,28.2934894 95.3438339,28.2759275 95.3438339,27.7661577 C95.3438339,27.4500435 95.5729098,27.3109722 95.9098095,27.3109722 L97.5714,27.3109722 C98.2590228,27.3109722 98.2993086,27.4918124 98.2993086,27.9208923 L99.7969913,27.9208923 L99.7969913,27.7348311 C99.7969913,26.7029507 99.6346634,26 97.9086946,26 L95.8162043,26 C93.9286975,26 93.8425965,26.8187643 93.8425965,27.8810221 C93.8425965,29.322522 94.1032692,29.6471798 96.3553227,29.6471798 C98.285485,29.6471798 98.4612416,29.6785064 98.4612416,30.1901748 C98.4612416,30.644411 98.1361907,30.6861799 97.8202239,30.6861799 L95.9844566,30.6861799 C95.5539518,30.6861799 95.3438339,30.6372914 95.3363297,30.0121826 L93.8386469,30.0121826 L93.8386469,30.4175303 Z" id="Fill-3"></path>
            </g>
        </g>
    </g>
</svg>